%TF.GenerationSoftware,KiCad,Pcbnew,10.0.3*%
%TF.CreationDate,2026-05-30T16:42:01-05:00*%
%TF.ProjectId,HC_SR04_Alarm_Shield,48435f53-5230-4345-9f41-6c61726d5f53,rev?*%
%TF.SameCoordinates,Original*%
%TF.FileFunction,Profile,NP*%
%FSLAX46Y46*%
G04 Gerber Fmt 4.6, Leading zero omitted, Abs format (unit mm)*
G04 Created by KiCad (PCBNEW 10.0.3) date 2026-05-30 16:42:01*
%MOMM*%
%LPD*%
G01*
G04 APERTURE LIST*
%TA.AperFunction,Profile*%
%ADD10C,0.150000*%
%TD*%
%ADD11C,1.600000*%
%ADD12R,1.700000X1.700000*%
%ADD13C,1.700000*%
%ADD14R,1.800000X1.800000*%
%ADD15C,1.800000*%
%ADD16R,2.000000X2.000000*%
%ADD17C,2.000000*%
%ADD18O,1.700000X1.700000*%
%ADD19C,3.200000*%
G04 APERTURE END LIST*
D10*
X166040000Y-59360000D02*
X168580000Y-61900000D01*
X100000000Y-99238000D02*
X100000000Y-47422000D01*
X168580000Y-61900000D02*
X168580000Y-96190000D01*
X165278000Y-100000000D02*
X100762000Y-100000000D01*
X100762000Y-46660000D02*
X166040000Y-46500000D01*
X100762000Y-100000000D02*
G75*
G02*
X100000000Y-99238000I0J762000D01*
G01*
X168580000Y-96190000D02*
X166040000Y-98730000D01*
X166040000Y-99238000D02*
G75*
G02*
X165278000Y-100000000I-762000J0D01*
G01*
X166040000Y-46500000D02*
X166040000Y-59360000D01*
X166040000Y-98730000D02*
X166040000Y-99238000D01*
X100000000Y-47422000D02*
G75*
G02*
X100762000Y-46660000I762000J0D01*
G01*
D11*
%TO.C,R1*%
X154500000Y-77690000D03*
X154500000Y-85310000D03*
%TD*%
D12*
%TO.C,J5*%
X119000000Y-63310000D03*
D13*
X119000000Y-60770000D03*
X119000000Y-58230000D03*
X119000000Y-55690000D03*
%TD*%
D14*
%TO.C,D1*%
X158000000Y-58275000D03*
D15*
X158000000Y-55735000D03*
%TD*%
D16*
%TO.C,BZ1*%
X115500000Y-81300000D03*
D17*
X115500000Y-73700000D03*
%TD*%
D12*
%TO.C,J1*%
X127940000Y-97460000D03*
D18*
X130480000Y-97460000D03*
X133020000Y-97460000D03*
X135560000Y-97460000D03*
X138100000Y-97460000D03*
X140640000Y-97460000D03*
X143180000Y-97460000D03*
X145720000Y-97460000D03*
%TD*%
D12*
%TO.C,J3*%
X150800000Y-97460000D03*
D18*
X153340000Y-97460000D03*
X155880000Y-97460000D03*
X158420000Y-97460000D03*
X160960000Y-97460000D03*
X163500000Y-97460000D03*
%TD*%
D12*
%TO.C,J2*%
X118796000Y-49200000D03*
D18*
X121336000Y-49200000D03*
X123876000Y-49200000D03*
X126416000Y-49200000D03*
X128956000Y-49200000D03*
X131496000Y-49200000D03*
X134036000Y-49200000D03*
X136576000Y-49200000D03*
X139116000Y-49200000D03*
X141656000Y-49200000D03*
%TD*%
D12*
%TO.C,J4*%
X145720000Y-49200000D03*
D18*
X148260000Y-49200000D03*
X150800000Y-49200000D03*
X153340000Y-49200000D03*
X155880000Y-49200000D03*
X158420000Y-49200000D03*
X160960000Y-49200000D03*
X163500000Y-49200000D03*
%TD*%
D19*
%TO.C,MH1*%
X115240000Y-49200000D03*
%TD*%
%TO.C,MH2*%
X113970000Y-97460000D03*
%TD*%
%TO.C,MH3*%
X166040000Y-64440000D03*
%TD*%
%TO.C,MH4*%
X166040000Y-92380000D03*
%TD*%
D11*
%TO.C,R1*%
X154500000Y-77690000D03*
X154500000Y-85310000D03*
%TD*%
D12*
%TO.C,J5*%
X119000000Y-63310000D03*
D13*
X119000000Y-60770000D03*
X119000000Y-58230000D03*
X119000000Y-55690000D03*
%TD*%
D14*
%TO.C,D1*%
X158000000Y-58275000D03*
D15*
X158000000Y-55735000D03*
%TD*%
D16*
%TO.C,BZ1*%
X115500000Y-81300000D03*
D17*
X115500000Y-73700000D03*
%TD*%
D12*
%TO.C,J1*%
X127940000Y-97460000D03*
D18*
X130480000Y-97460000D03*
X133020000Y-97460000D03*
X135560000Y-97460000D03*
X138100000Y-97460000D03*
X140640000Y-97460000D03*
X143180000Y-97460000D03*
X145720000Y-97460000D03*
%TD*%
D12*
%TO.C,J3*%
X150800000Y-97460000D03*
D18*
X153340000Y-97460000D03*
X155880000Y-97460000D03*
X158420000Y-97460000D03*
X160960000Y-97460000D03*
X163500000Y-97460000D03*
%TD*%
D12*
%TO.C,J2*%
X118796000Y-49200000D03*
D18*
X121336000Y-49200000D03*
X123876000Y-49200000D03*
X126416000Y-49200000D03*
X128956000Y-49200000D03*
X131496000Y-49200000D03*
X134036000Y-49200000D03*
X136576000Y-49200000D03*
X139116000Y-49200000D03*
X141656000Y-49200000D03*
%TD*%
D12*
%TO.C,J4*%
X145720000Y-49200000D03*
D18*
X148260000Y-49200000D03*
X150800000Y-49200000D03*
X153340000Y-49200000D03*
X155880000Y-49200000D03*
X158420000Y-49200000D03*
X160960000Y-49200000D03*
X163500000Y-49200000D03*
%TD*%
D19*
%TO.C,MH1*%
X115240000Y-49200000D03*
%TD*%
%TO.C,MH2*%
X113970000Y-97460000D03*
%TD*%
%TO.C,MH3*%
X166040000Y-64440000D03*
%TD*%
%TO.C,MH4*%
X166040000Y-92380000D03*
%TD*%
M02*
